<svg width="64" height="64" fill="none" xmlns="http://www.w3.org/2000/svg"><path d="M8 24v26.667A5.333 5.333 0 0013.333 56h37.334A5.333 5.333 0 0056 50.667V24" stroke="#F4CC72" stroke-width="2"/><path d="M54.627 8H43.98l1.334 13.333S47.98 24 51.98 24a8.613 8.613 0 005.704-2.15 1.341 1.341 0 00.4-1.24L56.203 9.334A1.6 1.6 0 0054.627 8z" stroke="#F4CC72" stroke-width="2"/><path d="M43.981 8l1.334 13.333S42.648 24 38.648 24s-6.667-2.667-6.667-2.667V8h12zm-12 0v13.333S29.315 24 25.315 24s-6.667-2.667-6.667-2.667L19.981 8h12z" stroke="#F4CC72" stroke-width="2"/><path d="M19.981 8H9.34a1.6 1.6 0 00-1.58 1.336L5.88 20.613a1.344 1.344 0 00.4 1.24 8.619 8.619 0 005.701 2.15c4 0 6.667-2.667 6.667-2.667L19.981 8z" stroke="#F4CC72" stroke-width="2"/></svg>