<?xml version="1.0" ?><!DOCTYPE svg  PUBLIC '-//W3C//DTD SVG 1.1//EN'  'http://www.w3.org/Graphics/SVG/1.1/DTD/svg11.dtd'><svg enable-background="new 0 0 48 48" height="48px" id="Layer_5" version="1.1" viewBox="0 0 48 48" width="48px" xml:space="preserve" xmlns="http://www.w3.org/2000/svg" xmlns:xlink="http://www.w3.org/1999/xlink"><g><rect fill="#241F20" height="9.688" width="3.562" x="15.553" y="21.969"/><rect fill="#241F20" height="9.688" width="3.542" x="22.261" y="21.969"/><path d="M0,9v30h48v-9.062V25.75V9H0z M35.938,31.656c0.812,0,1.469,0.658,1.469,1.469s-0.657,1.469-1.469,1.469   H12.062c-0.812,0-1.469-0.658-1.469-1.469s0.657-1.469,1.469-1.469h0.386v-9.688h-0.386c-0.812,0-1.469-0.658-1.469-1.469   c0-0.388,0.153-0.738,0.398-1c0.083-0.088,0.189-0.148,0.292-0.214l-0.011-0.017l0.082-0.035c0.064-0.037,0.133-0.061,0.204-0.087   l1.873-0.799v0l10.474-4.942l12.52,5.714c0.079,0.028,0.153,0.062,0.225,0.103l0.003,0.001c0.447,0.252,0.753,0.726,0.753,1.275   c0,0.811-0.657,1.469-1.469,1.469h-0.405v9.688H35.938z" fill="#241F20"/><rect fill="#241F20" height="9.688" width="3.604" x="28.886" y="21.969"/></g></svg>