<svg width="24" height="24" fill="none" xmlns="http://www.w3.org/2000/svg"><rect width="24" height="24" rx="12" fill="#00732F"/><path d="M7.583 10.297v5.297h1.254V5H7.583v5.297zm8.377-.257c.735.662 1.22 1.287 1.5 1.923.457 1.05.34 1.774-.36 2.244a2.436 2.436 0 01-1.803.38 7.214 7.214 0 01-.78-.207c-.04-.018-.046.04-.046.61v.624l.271.079a4.157 4.157 0 002.388-.038c.872-.271 1.485-.858 1.742-1.666.262-.818.166-1.545-.33-2.53-.28-.553-.531-.906-.943-1.314l-.326-.33H15.71l.248.225zm-4.375 4.028c-.187.067-.388.28-.47.493-.053.14-.061.213-.053.391.02.341.17.58.444.715.341.167.677.117.937-.14a.828.828 0 00.198-.295c.061-.18.064-.49.003-.668a.959.959 0 00-.403-.464.992.992 0 00-.656-.032zm-3.441 1.964c-.601.082-.969.377-1.086.873-.055.23-.026.68.056.863a.857.857 0 00.338.389l.088.044-.16.04c-.088.024-.21.056-.27.07l-.11.03v.335c0 .307.006.336.053.321.026-.009.522-.12 1.1-.251l1.117-.248c.062-.015.065-.026.065-.35 0-.248-.009-.336-.035-.336-.02 0-.164.026-.315.059-.508.105-.835.06-1.089-.15-.292-.241-.312-.641-.044-.892.108-.1.222-.129.52-.131.292-.003.546.05.723.151l.094.056v-.333c0-.312-.003-.336-.064-.38-.181-.125-.651-.204-.98-.16z" fill="#fff"/></svg>