<svg width="24" height="24" fill="none" xmlns="http://www.w3.org/2000/svg"><rect width="24" height="24" rx="12" fill="#F6931A"/><path d="M16.397 12.431c.225.119.439.257.64.413.7.555.996 1.278.883 2.163a4.104 4.104 0 01-.676 1.833c-.455.661-1.1 1.018-1.88 1.152-.645.111-1.29.075-1.934-.011a13.72 13.72 0 01-.7-.114c-.075-.014-.098.01-.116.081-.177.724-.361 1.445-.537 2.169-.025.102-.055.12-.158.092a43.13 43.13 0 00-1.227-.308c-.075-.016-.083-.037-.066-.108.182-.719.359-1.439.541-2.157.02-.081.013-.115-.075-.136a40.125 40.125 0 01-.949-.248c-.08-.023-.103 0-.122.075-.177.723-.36 1.445-.538 2.168-.02.081-.043.095-.124.075-.413-.107-.83-.21-1.247-.31-.075-.018-.085-.05-.068-.121.183-.725.36-1.452.546-2.18.024-.094.004-.125-.087-.15l-2.697-.677c-.064-.016-.083-.031-.053-.099.22-.501.436-1.002.65-1.503.027-.064.061-.063.118-.047.31.081.619.165.93.235.39.086.62-.066.716-.451a4031.394 4031.394 0 011.567-6.27c.09-.365-.1-.717-.476-.861-.292-.1-.59-.18-.893-.242-.089-.022-.177-.045-.266-.061-.049-.01-.056-.028-.044-.076.118-.468.236-.936.35-1.406.019-.084.069-.057.115-.046.356.088.71.18 1.068.267.54.13 1.075.282 1.618.403.089.02.123.009.146-.086.173-.713.353-1.428.526-2.137.022-.09.05-.115.143-.09.407.108.817.209 1.227.307.086.02.095.054.075.134-.179.705-.353 1.41-.53 2.115-.02.075-.012.097.068.115.319.07.637.145.954.225.09.024.116-.005.136-.086.169-.689.342-1.376.51-2.064.023-.095.049-.129.157-.1.403.11.81.209 1.216.306.08.018.095.045.075.125-.182.719-.357 1.439-.541 2.157-.024.091 0 .119.08.15a6.652 6.652 0 011.597.768c.466.318.851.706 1.06 1.242.226.587.181 1.178.005 1.766-.248.832-.793 1.358-1.636 1.578-.029.005-.047.015-.077.031zm-3.266 3.548h.097c.352-.011.698-.05 1.019-.205.81-.394.985-1.473.344-2.13-.376-.384-.843-.602-1.333-.784-.6-.225-1.235-.354-1.86-.506-.09-.021-.108.007-.127.084a496.03 496.03 0 01-.741 2.972c-.02.08.004.1.075.116.268.064.534.137.803.203.563.145 1.14.228 1.721.246l.002.004zm.647-4.705c.194.003.387-.014.576-.05.502-.105.864-.376 1.01-.882.146-.506.026-.962-.376-1.327a2.643 2.643 0 00-.717-.451c-.584-.261-1.207-.392-1.828-.532-.075-.017-.081.03-.094.081l-.273 1.09c-.132.526-.262 1.057-.398 1.585-.02.075-.006.108.075.126.157.033.31.08.465.119.513.12 1.028.235 1.559.237l.002.004z" fill="#fff"/></svg>