<svg width="16" height="20" fill="none" xmlns="http://www.w3.org/2000/svg"><path fill-rule="evenodd" clip-rule="evenodd" d="M1.318 16.25h.523V2.361H12.75v-.528c0-.286-.111-.56-.311-.764a1.06 1.06 0 00-.757-.319H1.318a1.06 1.06 0 00-.757.319c-.2.203-.311.478-.311.764v13.334c0 .286.111.56.311.764.2.204.472.319.757.319zm13.364-12.5H4.318a1.06 1.06 0 00-.757.319c-.2.203-.311.478-.311.764v13.334c0 .285.111.56.311.764.2.204.472.319.757.319h10.364c.285 0 .557-.115.757-.319.2-.203.311-.479.311-.764V4.833c0-.286-.111-.56-.311-.764a1.06 1.06 0 00-.757-.319zm-.523 13.889H4.841V5.36h9.318v12.28z" fill="#2966AB"/></svg>