<svg width="24" height="24" fill="none" xmlns="http://www.w3.org/2000/svg"><rect width="24" height="24" rx="12" fill="#EDEFF0"/><g clip-path="url(#clip0_114_1991)"><path d="M12.016 15.118c-.05.017-.08-.027-.114-.047-1.692-.999-3.383-1.998-5.071-2.998a.345.345 0 00-.05-.021v-.022l.03-.018a.955.955 0 00.125-.04l3.987-1.814c.355-.162.71-.322 1.066-.482h.025v.144c.002 1.766.002 3.532.002 5.298z" fill="#393939"/><path d="M12.018 9.677h-.025c0-.05.005-.102.005-.155V3.57a.425.425 0 01.01-.152h.011c.209.308.39.633.582.951l4.558 7.564c.015.025.027.05.04.078a.88.88 0 01-.127-.037 845.393 845.393 0 00-2.133-.975l-2.084-.945c-.278-.128-.557-.252-.837-.377z" fill="#343434"/><path d="M12.01 3.415a.424.424 0 00-.01.152V9.52c0 .05-.003.102-.005.155l-1.066.482-3.987 1.814a.922.922 0 01-.126.04c.116-.24.265-.456.402-.686 1.582-2.63 3.165-5.259 4.75-7.888a.437.437 0 01.034-.041l.008.02z" fill="#8C8C8C"/><path d="M12.019 9.677l.837.375 2.085.945 1.298.592.835.383a.884.884 0 00.126.037c.051.063-.024.066-.047.08-.433.258-.868.514-1.302.77l-3.736 2.211c-.032.019-.066.032-.099.048V9.821l.003-.144z" fill="#141414"/><path d="M11.998 16.12l3.262-1.922c.623-.367 1.245-.735 1.867-1.104l.056-.03c.006.05-.03.077-.05.107l-4.265 6.009c-.269.38-.537.761-.809 1.138-.014.02-.036.113-.08.014.035-.03.02-.069.02-.101v-4.11z" fill="#3D3D3C"/><path d="M11.998 16.121v4.108c0 .035.015.075-.02.101-.072-.043-.103-.121-.152-.186a8719.325 8719.325 0 01-4.941-6.966c-.021-.029-.04-.06-.062-.093.043-.025.066.01.09.024 1.667.984 3.334 1.969 5 2.955l.085.057z" fill="#8C8C8C"/><path d="M12.011 3.415L12 3.396c.022-.014.02.007.023.018l-.01.001z" fill="#393939"/></g><defs><clipPath id="clip0_114_1991"><path fill="#fff" transform="translate(6.782 3.392)" d="M0 0h10.435v16.986H0z"/></clipPath></defs></svg>