<svg width="24" height="24" fill="none" xmlns="http://www.w3.org/2000/svg"><rect width="24" height="24" rx="12" fill="#0045F5"/><path d="M8.552 13.488h-1.28c-.181 0-.272-.096-.272-.288v-.16c0-.192.09-.288.272-.288h1.104a7.385 7.385 0 01-.08-1.04l.032-.592H7.272c-.181 0-.272-.096-.272-.288v-.16c0-.192.09-.288.272-.288H8.44c.256-1.29.864-2.341 1.824-3.152C11.234 6.411 12.371 6 13.672 6c.79 0 1.536.144 2.24.432.16.053.197.176.112.368l-.256.704c-.053.128-.117.192-.192.192a.377.377 0 01-.16-.048c-.501-.224-1.083-.336-1.744-.336-.992 0-1.803.299-2.432.896-.608.576-1.035 1.301-1.28 2.176h4.544c.107 0 .181.021.224.064.043.032.064.107.064.224v.176c0 .181-.096.272-.288.272H9.832l-.032.592c0 .31.032.656.096 1.04h4.608c.107 0 .181.021.224.064.043.032.064.107.064.224v.176c0 .181-.096.272-.288.272h-4.4a4.571 4.571 0 001.264 1.968c.63.565 1.397.848 2.304.848.661 0 1.237-.112 1.728-.336a.377.377 0 01.16-.048c.085 0 .15.064.192.192l.256.704c.085.192.053.315-.096.368-.661.288-1.408.432-2.24.432-1.237 0-2.325-.39-3.264-1.168a5.474 5.474 0 01-1.856-2.96z" fill="#FCC12B"/></svg>