<svg width="64" height="64" fill="none" xmlns="http://www.w3.org/2000/svg"><g clip-path="url(#clip0_73_6404)"><path fill-rule="evenodd" clip-rule="evenodd" d="M7.638 37.495c-.734.19-.872.206-1.59.367-.687 1.551-1.637 2.974-2.715 4.335a80.185 80.185 0 005.964-1.606 18.034 18.034 0 01-1.659-3.096zm32.055 19.782c-.735.206-1.492.168-2.2.078-1.759-.239-3.86-1.217-5.406-1.919-.719-.328-1.919-.856-2.57-1.222-.85-.474-2.027-1.124-2.913-1.53-1.04-.472-2.643-1.46-3.708-2.055-1.072-.657-2.134-1.317-3.205-1.973-.764-.512-1.614-1.024-2.332-1.584-1.261-.978-2.461-1.972-3.693-2.98-1.254-1.168-2.249-2.34-3.295-3.7-1.016-1.34-1.956-3.402-2.63-4.93-.757-1.707-1.055-4.069-1.2-5.91-.083-1.094.061-2.551.292-3.646.221-1.071.542-2.217.972-3.218.735-1.567 1.338-2.668 2.4-4.029.497-.634 1.536-1.583 2.155-2.04 1.98-1.468 4.739-2.102 7.103-2.063 2.172.032 3.936.467 5.98 1.239 1.344.511 2.56 1.1 3.737.206.597-.45 1.017-1.078 1.492-1.635.657-.788 1.232-1.506 1.963-2.233 1.239-1.223 3.487-2.752 5.755-3.386.834-.228 1.405-.306 2.24-.422 1.376-.19 3.47.206 4.715.696.84.328 2.102.862 2.83 1.39.75.495 1.399.94 2.079 1.535.972.84 1.989 1.857 2.714 2.919a22.832 22.832 0 011.482 2.513c.535 1.085 1.045 2.674 1.331 3.968.298 1.33.427 2.5.497 3.852a17.05 17.05 0 01-.093 2.813 26.202 26.202 0 01-.353 2.317c-.26 1.59-.811 3.135-1.344 4.625l-.696 1.734c-.452 1.185-1.116 2.263-1.575 3.386-.375.933-.978 1.85-1.43 2.767-.482.924-1.024 1.803-1.538 2.713-.304.544-.65 1.072-.956 1.622l-1.825 2.89c-.78 1.078-1.504 2.24-2.3 3.34-.613.873-1.344 1.63-2.063 2.408-.298.322-.68.573-1.046.827a5.19 5.19 0 01-1.37.634m.95-2.195c-5.755 0-11.642-2.584-16.274-6.002l.06-.212c5.695 2.562 12.621 4.402 18.28 4.106-.343.618-1.803 2.157-2.063 2.111m-22.337-9.587c-2.088-1.4-4.578-3.913-6.23-5.808-.956-1.085-1.652-2.552-2.24-3.885-2.21-4.969-1.651-10.12 1.3-14.256 3.301-4.631 9.701-6.176 15.13-2.607l-.88.383c-3.73-1.728-8.806-.84-11.183 2.146-3.388 4.258-3.067 9.671-.834 14.45 12.222-3.952 25.212-10.755 31.12-15.38l.222 1.439c-2.316 3.7-15.854 11.65-29.677 16.763a37.78 37.78 0 002.669 3.663c12.283-3.8 25.006-10.337 30.954-15.045l.116 1.184c-2.31 3.685-15.258 11.415-28.767 16.445 1.11 1.146 2.531 2.407 3.799 3.43l-.122.116c-1.774-.872-3.853-2.017-5.374-3.034m-6.047-1.674a52.76 52.76 0 01-1.27.3c-1.001 1.85-1.903 3.18-2.714 4.334 2.255-.505 4.655-1.178 6.993-1.927-1.084-.773-2.14-1.658-3.012-2.707M32 0c17.676 0 32 14.327 32 31.998S49.673 63.997 32 63.997c-17.673 0-32-14.324-32-31.999C0 14.324 14.327 0 32 0z" fill="#A88B4A"/></g><defs><clipPath id="clip0_73_6404"><path fill="#fff" d="M0 0h64v64H0z"/></clipPath></defs></svg>
