<svg width="217" height="40" fill="none" xmlns="http://www.w3.org/2000/svg"><path d="M19.521 24.582h3.434v-7.41h-3.434v7.41z" fill="#1F8CEB"/><path d="M28.204 0H0v39.893h7.828V7.078h18.767v25.737H15.013l-7.185 7.078h20.268c1.716 0 3.11-.644 4.397-1.93 1.287-1.287 1.93-2.681 1.93-4.397V6.327c0-1.716-.643-3.11-1.93-4.397C31.313.643 29.813 0 28.203 0zm46.571 0H52.79c-1.716 0-3.217.643-4.397 1.823-1.18 1.18-1.823 2.681-1.823 4.397v27.346c0 1.715.644 3.217 1.823 4.396 1.18 1.18 2.681 1.823 4.397 1.823h21.877c1.715 0 3.217-.643 4.396-1.822 1.18-1.18 1.824-2.681 1.824-4.397V6.327c0-1.716-.644-3.217-1.824-4.397C77.992.643 76.491 0 74.774 0zm-1.609 7.078v25.737H54.4V7.078h18.766zm48.371 21.126c2.896 0 6.327-1.18 6.327-7.078V6.327c0-1.716-.643-3.11-1.93-4.397C124.647.643 123.253 0 121.537 0H93.333v39.893h7.829V7.078h18.767v14.799h-18.338l17.694 17.801.215.215h10.294l-11.796-11.69h3.539zm47.18 0c2.895 0 6.327-1.18 6.327-7.078V6.327c0-1.716-.644-3.11-1.931-4.397C171.827.643 170.325 0 168.717 0h-28.204v40h7.828V7.078h18.767v14.799H148.77l17.587 17.801.215.215h10.295l-11.797-11.69h3.647zm47.31-21.126V0h-22.628c-1.715 0-3.217.643-4.396 1.823-1.18 1.18-1.823 2.681-1.823 4.397v10.938c0 1.716.643 3.217 1.823 4.397 1.179 1.18 2.681 1.823 4.396 1.823h14.799v9.33l-21.019-.107v7.077l22.628.108c1.716 0 3.217-.644 4.397-1.824 1.179-1.18 1.823-2.68 1.823-4.396V22.735c0-1.716-.644-3.218-1.823-4.397-1.18-1.18-2.681-1.823-4.397-1.823h-14.799V7.078h21.019z" fill="#1E2D3B"/></svg>