<?xml version="1.0" encoding="UTF-8"?>
<!DOCTYPE svg PUBLIC "-//W3C//DTD SVG 1.1//EN" "http://www.w3.org/Graphics/SVG/1.1/DTD/svg11.dtd">
<svg xmlns="http://www.w3.org/2000/svg" version="1.1" width="32px" height="32px" style="shape-rendering:geometricPrecision; text-rendering:geometricPrecision; image-rendering:optimizeQuality; fill-rule:evenodd; clip-rule:evenodd" xmlns:xlink="http://www.w3.org/1999/xlink">
<g><path style="opacity:0.876" fill="#f68520" d="M 8.5,-0.5 C 10.8333,-0.5 13.1667,-0.5 15.5,-0.5C 4.5303,2.77274 1.0303,9.77274 5,20.5C 7.36486,23.8691 10.5315,26.0357 14.5,27C 12.5273,27.4955 10.5273,27.6621 8.5,27.5C 4.5,25.5 1.5,22.5 -0.5,18.5C -0.5,15.1667 -0.5,11.8333 -0.5,8.5C 1.52525,4.47472 4.52525,1.47472 8.5,-0.5 Z"/></g>
<g><path style="opacity:0.88" fill="#02b3ef" d="M 12.5,1.5 C 26.353,0.885251 30.5196,6.88525 25,19.5C 26.8562,7.68735 22.0229,3.18735 10.5,6C 7.36048,9.25198 6.86048,8.75198 9,4.5C 10.5185,3.83663 11.6851,2.83663 12.5,1.5 Z"/></g>
<g><path style="opacity:0.877" fill="#013461" d="M 31.5,8.5 C 31.5,12.1667 31.5,15.8333 31.5,19.5C 29.1667,25.1667 25.1667,29.1667 19.5,31.5C 15.8333,31.5 12.1667,31.5 8.5,31.5C 5.44274,29.9556 2.77607,27.7889 0.5,25C 2.95826,26.0381 5.62493,26.8714 8.5,27.5C 23.8904,29.2677 30.3904,22.2677 28,6.5C 27.0181,5.24109 26.6848,3.90775 27,2.5C 28.7641,4.3893 30.2641,6.3893 31.5,8.5 Z"/></g>
</svg>
