<svg width="32" height="24" fill="none" xmlns="http://www.w3.org/2000/svg"><path d="M5.053 0h21.894a5.19 5.19 0 013.573 1.406A4.68 4.68 0 0132 4.8v14.4a4.681 4.681 0 01-1.48 3.394A5.19 5.19 0 0126.947 24H5.053a5.19 5.19 0 01-3.573-1.406A4.682 4.682 0 010 19.2V4.8a4.68 4.68 0 011.48-3.394A5.19 5.19 0 015.053 0zm0 1.6c-.842 0-1.584.272-2.156.752L16 10.4l13.103-8.048c-.573-.48-1.314-.752-2.156-.752H5.053zM16 12.336L1.903 3.648A3.269 3.269 0 001.684 4.8v14.4c0 .849.355 1.663.987 2.263a3.46 3.46 0 002.382.937h21.894a3.46 3.46 0 002.382-.937 3.12 3.12 0 00.987-2.263V4.8c0-.4-.084-.8-.22-1.152L16 12.336z" fill="#F4CC72"/></svg>