<svg width="20" height="20" fill="none" xmlns="http://www.w3.org/2000/svg"><path d="M13 10v3M10 1v3m6 6v3m-6 3h9m-3 3h3M4 10h3M4 4.011L4.01 4M10 10.011l.01-.011M1 10.011L1.01 10M10 7.011L10.01 7M10 13.011l.01-.011M13 19.011l.01-.011m-3.01.011l.01-.011M19 10.011l.01-.011M19 13.011l.01-.011M16 4.011L16.01 4M4 16.011L4.01 16M7 1.6v4.8a.6.6 0 01-.6.6H1.6a.6.6 0 01-.6-.6V1.6a.6.6 0 01.6-.6h4.8a.6.6 0 01.6.6zm12 0v4.8a.6.6 0 01-.6.6h-4.8a.6.6 0 01-.6-.6V1.6a.6.6 0 01.6-.6h4.8a.6.6 0 01.6.6zm-12 12v4.8a.6.6 0 01-.6.6H1.6a.6.6 0 01-.6-.6v-4.8a.6.6 0 01.6-.6h4.8a.6.6 0 01.6.6z" stroke="#2966AB" stroke-width="1.5" stroke-linecap="round" stroke-linejoin="round"/></svg>