<svg width="33" height="42" viewBox="0 0 33 42" fill="none" xmlns="http://www.w3.org/2000/svg">
<path d="M7.36 11.7957H25.262M7.36 17.7747H16.311M7.36 23.7547H9.442M17.871 39.9437L27.796 31.8557C28.8353 31.009 29.673 29.9415 30.2483 28.7307C30.8236 27.5199 31.1221 26.1962 31.122 24.8557V6.70669C31.122 6.12079 30.9283 5.55131 30.5712 5.08687C30.214 4.62243 29.7133 4.28908 29.147 4.13869L21.997 2.24169C18.2708 1.25277 14.3512 1.25277 10.625 2.24169L3.475 4.13869C2.90872 4.28908 2.40804 4.62243 2.05085 5.08687C1.69366 5.55131 1.5 6.12079 1.5 6.70669V24.8567C1.49979 26.1971 1.79808 27.5208 2.37321 28.7316C2.94834 29.9424 3.78587 31.0099 4.825 31.8567L14.751 39.9447C15.1915 40.304 15.7425 40.5003 16.311 40.5003C16.8795 40.5003 17.4305 40.303 17.871 39.9437Z" stroke="#1f8ceb" stroke-width="2" stroke-linecap="square" stroke-linejoin="round"/>
</svg>
