<svg width="24" height="24" fill="none" xmlns="http://www.w3.org/2000/svg"><g clip-path="url(#clip0_114_1904)"><path fill="#fff" d="M0 0h24v24H0z"/><path fill-rule="evenodd" clip-rule="evenodd" d="M2.864 14.06c-.275.072-.327.078-.596.138-.258.582-.614 1.115-1.018 1.626.717-.163 1.488-.37 2.236-.602a6.765 6.765 0 01-.622-1.161zm12.02 7.419c-.275.077-.559.063-.825.029-.659-.09-1.447-.456-2.026-.72-.27-.122-.72-.32-.964-.458-.319-.177-.76-.421-1.092-.573-.39-.178-.992-.548-1.391-.771-.402-.247-.8-.494-1.202-.74-.286-.192-.605-.384-.875-.594-.472-.367-.922-.74-1.384-1.117-.47-.439-.843-.878-1.236-1.388-.381-.502-.734-1.276-.986-1.85-.284-.639-.396-1.524-.45-2.215-.031-.41.023-.957.11-1.367.082-.402.203-.832.364-1.207.275-.588.502-1 .9-1.51a5.2 5.2 0 01.808-.766c.742-.55 1.777-.788 2.664-.774.814.013 1.476.175 2.242.465.504.192.96.413 1.402.077.223-.169.38-.404.559-.613.247-.295.462-.565.736-.837.465-.459 1.308-1.032 2.158-1.27.313-.086.527-.115.84-.158.516-.071 1.302.077 1.768.26.316.124.788.324 1.062.522.281.186.524.352.78.576.364.315.745.696 1.017 1.094.203.3.39.613.556.943.2.407.392 1.003.499 1.488.112.498.16.938.186 1.444.02.347.003.723-.034 1.055a9.807 9.807 0 01-.133.87c-.097.595-.304 1.175-.504 1.733l-.261.65c-.17.445-.419.85-.59 1.27-.141.35-.368.694-.537 1.038-.18.346-.384.676-.576 1.017-.115.204-.245.402-.359.609l-.684 1.084c-.293.404-.565.84-.863 1.252-.23.327-.504.61-.773.903-.112.12-.256.215-.393.31-.12.083-.338.19-.513.238m.356-.823c-2.159 0-4.366-.97-6.103-2.251l.023-.08c2.135.961 4.732 1.651 6.854 1.54-.128.232-.676.809-.773.792M6.864 17.06c-.783-.525-1.716-1.468-2.336-2.178-.358-.407-.62-.957-.84-1.457-.828-1.864-.62-3.796.488-5.346 1.238-1.737 3.638-2.316 5.673-.978l-.33.144c-1.399-.648-3.302-.315-4.193.805-1.27 1.596-1.15 3.626-.313 5.418 4.583-1.482 9.454-4.033 11.67-5.767l.083.54c-.868 1.387-5.945 4.368-11.129 6.286.293.458.628.92 1.001 1.373 4.607-1.425 9.378-3.876 11.608-5.642l.043.444c-.866 1.382-5.721 4.28-10.787 6.167.416.43.95.903 1.424 1.287l-.045.043a18.982 18.982 0 01-2.015-1.138m-2.268-.628c-.16.04-.318.078-.476.113a15.547 15.547 0 01-1.018 1.625 30.81 30.81 0 002.622-.723 5.925 5.925 0 01-1.13-1.015M12 0c6.629 0 12 5.373 12 12 0 6.626-5.373 11.999-12 11.999s-12-5.372-12-12C0 5.372 5.373 0 12 0z" fill="#A88B4A"/></g><defs><clipPath id="clip0_114_1904"><path fill="#fff" d="M0 0h24v24H0z"/></clipPath></defs></svg>