<svg width="24" height="24" fill="none" xmlns="http://www.w3.org/2000/svg"><rect width="24" height="24" rx="12" fill="#2775CA"/><path d="M14.923 13.335c0-1.538-.921-2.066-2.764-2.285-1.317-.176-1.58-.528-1.58-1.143 0-.616.439-1.012 1.316-1.012.79 0 1.231.264 1.448.923a.33.33 0 00.308.22h.71a.3.3 0 00.309-.307v-.044a2.198 2.198 0 00-1.98-1.802V6.836c0-.176-.132-.308-.351-.352h-.661c-.176 0-.308.132-.352.352v1.01c-1.316.175-2.15 1.053-2.15 2.151 0 1.449.878 2.02 2.721 2.24 1.231.219 1.624.48 1.624 1.184s-.615 1.186-1.448 1.186c-1.142 0-1.536-.481-1.668-1.142a.32.32 0 00-.307-.263h-.752a.302.302 0 00-.308.308v.044c.176 1.098.88 1.89 2.33 2.109v1.058c0 .176.132.307.352.351h.658c.175 0 .307-.131.351-.351v-1.056c1.317-.22 2.194-1.143 2.194-2.33z" fill="#fff"/><path d="M9.787 17.948c-3.425-1.231-5.185-5.053-3.91-8.437a6.495 6.495 0 013.91-3.91c.176-.089.264-.22.264-.44v-.615c0-.176-.088-.308-.264-.352-.044 0-.132 0-.175.044-4.174 1.318-6.46 5.756-5.141 9.93a7.904 7.904 0 005.14 5.142.267.267 0 00.396-.176c.044-.044.044-.088.044-.176v-.615c0-.132-.13-.308-.264-.395zm4.656-13.71a.267.267 0 00-.396.176c-.043.044-.043.088-.043.176v.615c0 .176.131.351.263.439 3.425 1.23 5.185 5.053 3.91 8.436a6.498 6.498 0 01-3.91 3.911c-.176.088-.263.22-.263.44v.615c0 .175.087.307.263.351.044 0 .132 0 .176-.044 4.174-1.318 6.46-5.756 5.141-9.93a7.97 7.97 0 00-5.141-5.185z" fill="#fff"/></svg>